<svg fill="none" height="52" viewBox="0 0 177 52" width="177" xmlns="http://www.w3.org/2000/svg"><rect fill="#000" height="51.9608" rx="3.74527" width="176.19" x=".5" y=".019653"/><g clip-rule="evenodd" fill="#fff" fill-rule="evenodd"><path d="m68.1283 39.9246h2.9613l-6.4825-17.8384h-2.9986l-6.4825 17.8384h2.8617l1.6549-4.7347h6.8433zm-5.1636-14.5995h.2115l2.6005 7.5408h-5.4249zm15.9768.9148c-1.8414 0-3.4341.9147-4.2553 2.4476h-.199v-2.2251h-2.5756v17.8259h2.6751v-6.4035h.2115c.7092 1.4217 2.2397 2.2623 4.1682 2.2623 3.4217 0 5.5991-2.6826 5.5991-6.9598 0-4.2773-2.1774-6.9474-5.624-6.9474zm-.7589 11.5213c-2.2397 0-3.6457-1.7554-3.6457-4.5616 0-2.8185 1.406-4.5739 3.6581-4.5739 2.2645 0 3.6207 1.7183 3.6207 4.5616 0 2.8556-1.3562 4.5739-3.6331 4.5739zm14.633-11.5213c-1.8415 0-3.4341.9147-4.2553 2.4476h-.1991v-2.2251h-2.5756v17.8259h2.6752v-6.4035h.2115c.7092 1.4217 2.2396 2.2623 4.1682 2.2623 3.4217 0 5.5991-2.6826 5.5991-6.9598 0-4.2773-2.1774-6.9474-5.624-6.9474zm-.759 11.5213c-2.2396 0-3.6456-1.7554-3.6456-4.5616 0-2.8185 1.406-4.5739 3.6581-4.5739 2.2645 0 3.6207 1.7183 3.6207 4.5616 0 2.8556-1.3562 4.5739-3.6332 4.5739zm12.0454-2.6331c.199 3.1894 2.875 5.2291 6.856 5.2291 4.255 0 6.918-2.1386 6.918-5.5505 0-2.6825-1.518-4.166-5.201-5.019l-1.978-.4821c-2.339-.5439-3.285-1.2733-3.285-2.5465 0-1.6071 1.468-2.6579 3.671-2.6579 2.09 0 3.533 1.0261 3.795 2.6702h2.712c-.162-3.0039-2.824-5.1178-6.47-5.1178-3.919 0-6.532 2.1139-6.532 5.2909 0 2.6207 1.48 4.1783 4.728 4.9324l2.314.5563c2.377.5563 3.422 1.3722 3.422 2.732 0 1.5823-1.643 2.732-3.882 2.732-2.402 0-4.069-1.0755-4.305-2.7691zm16.077-11.9293v3.3254h-2.227v2.2375h2.227v7.6026c0 2.596 1.182 3.6344 4.156 3.6344.522 0 1.007-.0618 1.43-.136v-2.2127c-.373.037-.584.0618-.995.0618-1.331 0-1.916-.6181-1.916-2.0274v-6.9227h3.036v-2.2375h-3.036v-3.3254zm12.343 14.6242c-2.326 0-3.633-1.6936-3.633-4.6357 0-2.9174 1.307-4.6234 3.633-4.6234 2.315 0 3.634 1.706 3.634 4.6234 0 2.9298-1.319 4.6357-3.634 4.6357zm0 2.3612c3.957 0 6.383-2.6331 6.383-6.9969 0-4.3391-2.438-6.9845-6.383-6.9845-3.956 0-6.395 2.6454-6.395 6.9845 0 4.3638 2.426 6.9969 6.395 6.9969zm7.604-.2596h2.675v-7.9488c0-1.8914 1.431-3.1647 3.446-3.1647.448 0 1.269.0866 1.481.1608v-2.6208c-.286-.0742-.796-.1112-1.182-.1112-1.767 0-3.26.9642-3.646 2.2869h-.199v-2.0644h-2.575zm13.625-11.4596c1.978 0 3.272 1.3722 3.334 3.4861h-6.843c.149-2.1015 1.53-3.4861 3.509-3.4861zm3.322 7.8251c-.498 1.0508-1.605 1.6318-3.223 1.6318-2.14 0-3.521-1.4958-3.608-3.8569v-.1484h9.568v-.9271c0-4.2278-2.277-6.7867-6.047-6.7867-3.82 0-6.246 2.732-6.246 7.0339 0 4.302 2.377 6.9475 6.259 6.9475 3.098 0 5.263-1.4835 5.872-3.8941z"/><path d="m57.6328 8.16234v8.49446h3.0869c2.5478 0 4.0231-1.56 4.0231-4.2737 0-2.67257-1.4872-4.22076-4.0231-4.22076zm1.3272 1.20087h1.6116c1.7716 0 2.8203 1.11849 2.8203 3.03749 0 1.9485-1.031 3.0552-2.8203 3.0552h-1.6116zm10.4528 6.29279c-1.1079 0-1.7301-.8064-1.7301-2.2074 0-1.3893.6222-2.2017 1.7301-2.2017 1.1021 0 1.7301.8124 1.7301 2.2017 0 1.3951-.628 2.2074-1.7301 2.2074zm0 1.1244c1.8842 0 3.0395-1.2539 3.0395-3.3318 0-2.0663-1.1613-3.326-3.0395-3.326-1.8841 0-3.0454 1.2597-3.0454 3.326 0 2.0779 1.1554 3.3318 3.0454 3.3318zm13.0243-6.5342h-1.2739l-1.1494 4.8918h-.1007l-1.3272-4.8918h-1.2206l-1.3272 4.8918h-.0948l-1.1553-4.8918h-1.2917l1.7775 6.4106h1.3094l1.3272-4.7211h.1007l1.3332 4.7211h1.3212zm1.6187 6.4106h1.2739v-3.7498c0-1.0008.628-1.6247 1.653-1.6247.948 0 1.4102.5121 1.4102 1.5423v3.8322h1.2738v-4.1501c0-1.5247-.8117-2.3841-2.2515-2.3841-.9716 0-1.7241.4297-2.0381 1.142h-.0948v-1.0184h-1.2265zm7.7629 0h1.2738v-8.91242h-1.2738zm6.2105-1.0008c-1.1079 0-1.7301-.8064-1.7301-2.2074 0-1.3893.6222-2.2017 1.7301-2.2017 1.1021 0 1.7301.8124 1.7301 2.2017 0 1.3951-.628 2.2074-1.7301 2.2074zm0 1.1244c1.8842 0 3.0398-1.2539 3.0398-3.3318 0-2.0663-1.1616-3.326-3.0398-3.326-1.8841 0-3.0454 1.2597-3.0454 3.326 0 2.0779 1.1554 3.3318 3.0454 3.3318zm6.9808-1.0831c-.693 0-1.197-.3356-1.197-.9125 0-.5651.403-.8653 1.292-.9242l1.576-.1001v.5357c0 .7947-.711 1.4011-1.671 1.4011zm-.326 1.0654c.847 0 1.552-.3649 1.938-1.0066h.1v.9007h1.227v-4.3797c0-1.3539-.913-2.1545-2.53-2.1545-1.464 0-2.506.7064-2.637 1.8072h1.233c.142-.4533.634-.7123 1.345-.7123.871 0 1.321.3826 1.321 1.0596v.5534l-1.748.1c-1.535.0942-2.4.7594-2.4 1.9132 0 1.1714.907 1.919 2.151 1.919zm7.739 0c.889 0 1.642-.4179 2.027-1.1184h.1v1.0125h1.221v-8.91242h-1.274v3.52022h-.095c-.349-.7064-1.096-1.1243-1.979-1.1243-1.629 0-2.678 1.2832-2.678 3.3083 0 2.0308 1.037 3.3141 2.678 3.3141zm.362-5.4863c1.066 0 1.736.8418 1.736 2.178 0 1.3422-.664 2.1722-1.736 2.1722-1.079 0-1.724-.8182-1.724-2.178 0-1.3481.651-2.1722 1.724-2.1722zm11.544 4.3796c-1.108 0-1.73-.8064-1.73-2.2074 0-1.3893.622-2.2017 1.73-2.2017 1.102 0 1.73.8124 1.73 2.2017 0 1.3951-.628 2.2074-1.73 2.2074zm0 1.1244c1.884 0 3.039-1.2539 3.039-3.3318 0-2.0663-1.161-3.326-3.039-3.326-1.884 0-3.045 1.2597-3.045 3.326 0 2.0779 1.155 3.3318 3.045 3.3318zm4.871-.1236h1.274v-3.7498c0-1.0008.628-1.6247 1.653-1.6247.948 0 1.411.5121 1.411 1.5423v3.8322h1.273v-4.1501c0-1.5247-.811-2.3841-2.251-2.3841-.972 0-1.724.4297-2.038 1.142h-.095v-1.0184h-1.227zm11.776-7.96466v1.58346h-1.061v1.0655h1.061v3.6203c0 1.2362.563 1.7307 1.979 1.7307.249 0 .48-.0294.681-.0648v-1.0537c-.178.0177-.278.0295-.474.0295-.634 0-.912-.2944-.912-.9654v-3.2966h1.445v-1.0655h-1.445v-1.58346zm4.534 7.96466h1.273v-3.7439c0-.9713.646-1.6247 1.689-1.6247.96 0 1.44.518 1.44 1.5423v3.8263h1.274v-4.1383c0-1.5247-.83-2.39-2.281-2.39-.972 0-1.719.4297-2.033 1.1479h-.1v-3.53202h-1.262zm10.423-5.4569c.942 0 1.558.6534 1.588 1.66h-3.259c.071-1.0007.729-1.66 1.671-1.66zm1.582 3.7262c-.237.5004-.765.777-1.535.777-1.019 0-1.677-.7122-1.718-1.8366v-.0706h4.556v-.4415c0-2.0133-1.084-3.2318-2.879-3.2318-1.819 0-2.975 1.3009-2.975 3.3495s1.132 3.3083 2.981 3.3083c1.475 0 2.506-.7064 2.796-1.8543z"/><path d="m39.7353 26.2478c-.0391-4.3118 3.5535-6.4095 3.7178-6.5072-2.0346-2.9473-5.1882-3.3499-6.2964-3.382-2.6487-.277-5.2179 1.5746-6.5671 1.5746-1.3761 0-3.4539-1.5479-5.6931-1.5024-2.8816.0441-5.5774 1.7017-7.0559 4.2757-3.0512 5.2483-.7756 12.9609 2.1477 17.2032 1.4624 2.0789 3.1711 4.3974 5.4077 4.3158 2.1881-.0883 3.0055-1.386 5.6461-1.386 2.6163 0 3.3838 1.386 5.6648 1.3325 2.3484-.0348 3.8269-2.0857 5.2381-4.1834 1.6899-2.3787 2.3685-4.7266 2.3955-4.847-.0539-.0174-4.5594-1.7258-4.6052-6.8938z"/><path d="m35.4262 13.5678c1.1769-1.4622 1.9821-3.4516 1.7586-5.47039-1.7034.07492-3.8336 1.1706-5.0603 2.60079-1.0853 1.2602-2.0548 3.3258-1.8044 5.2683 1.9135.1418 3.878-.9592 5.1061-2.3987z"/></g></svg>