<svg fill="none" height="52" viewBox="0 0 177 52" width="177" xmlns="http://www.w3.org/2000/svg" xmlns:xlink="http://www.w3.org/1999/xlink"><linearGradient id="a" gradientUnits="userSpaceOnUse" x1="43.6636" x2="31.8481" y1="19.2513" y2="19.2513"><stop offset="0" stop-color="#fbda09"/><stop offset="1" stop-color="#ffbc00"/></linearGradient><linearGradient id="b" gradientUnits="userSpaceOnUse" x1="14.6375" x2="26.9333" y1="40.3829" y2="38.658"><stop offset="0" stop-color="#01e2ff"/><stop offset="1" stop-color="#01c4ff"/></linearGradient><linearGradient id="c" gradientUnits="userSpaceOnUse" x1="6.84549" x2="18.9784" y1="16.1068" y2="31.983"><stop offset="0" stop-color="#28d781"/><stop offset="1" stop-color="#02f076"/></linearGradient><linearGradient id="d" gradientUnits="userSpaceOnUse" x1="21.9384" x2="11.5784" y1="22.9324" y2="40.5791"><stop offset="0" stop-color="#f2414e"/><stop offset="1" stop-color="#e02554"/></linearGradient><mask id="e" height="33" maskUnits="userSpaceOnUse" width="30" x="13" y="9"><path clip-rule="evenodd" d="m40.7422 23.3936c1.9366 1.1051 1.9366 3.897.0001 5.0022l-23.1359 13.2033c-1.9198 1.0956-4.3071-.2907-4.3071-2.5011v-26.4063c0-2.2104 2.3873-3.59666 4.307-2.5011z" fill="#fff" fill-rule="evenodd"/></mask><rect fill="#000" height="51.8658" rx="4.57143" width="176.19" x=".30957" y=".019653"/><g fill="#fff"><path clip-rule="evenodd" d="m97.9432 13.0099c0 2.3479-1.9098 4.2513-4.2656 4.2513-2.3557 0-4.2655-1.9034-4.2655-4.2513 0-2.348 1.9098-4.25136 4.2655-4.25136 2.3558 0 4.2656 1.90336 4.2656 4.25136zm-1.3034 0c0 1.6305-1.3262 2.9523-2.9622 2.9523-1.6359 0-2.9621-1.3218-2.9621-2.9523s1.3262-2.9523 2.9621-2.9523c1.636 0 2.9622 1.3218 2.9622 2.9523z" fill-rule="evenodd"/><path clip-rule="evenodd" d="m68.2029 9.11279h-4.7395v.1181.82661 2.48.9447 2.5981.9447h1.3033 3.4362v-.9447h-3.4362v-2.5981h3.0807v-.9447h-3.0807v-2.48h3.4362z" fill-rule="evenodd"/><path clip-rule="evenodd" d="m71.5206 9.11279h-2.0143v.94471h2.0143v6.9675h1.3034v-6.9675h2.0143v-.94471h-2.0143z" fill-rule="evenodd"/><path clip-rule="evenodd" d="m83.1324 9.11279h-2.0142v.94471h2.0142v6.9675h1.3034v-6.9675h2.0143v-.94471h-2.0143z" fill-rule="evenodd"/><path d="m78.6299 9.11279h1.30336v7.91221h-1.30336z"/><path clip-rule="evenodd" d="m99.0098 9.11279h.2369 1.0663.237l3.555 5.78941v-5.78941h1.303v7.91221h-1.303l-3.792-6.1754v6.1754h-1.3032z" fill-rule="evenodd"/><path clip-rule="evenodd" d="m58.5796 12.6757h3.5685l-.0353 1.1256h-3.5332z" fill-rule="evenodd"/><path clip-rule="evenodd" d="m58.5267 17.2134c2.351.0211 4.3118-1.6294 3.9197-4.4959 0-.014 0-.0279-.0001-.0419h-1.0424c.0084.1197.0114.2429.0086.3694.0025 2.0473-1.1821 3.0076-2.8505 3.0076s-3.0209-1.3466-3.0209-3.0076 1.3525-3.0076 3.0209-3.0076c.8347 0 1.5581.2842 2.0674.8027l.8166-.813c-.6946-.7301-1.7106-1.15051-2.9193-1.15051-2.3123 0-4.1869 1.86621-4.1869 4.16841 0 2.3021 1.8746 4.1651 4.1869 4.1684z" fill-rule="evenodd"/><path clip-rule="evenodd" d="m134.993 23.2839h-6.718v10.163h6.718s3.867-.6557 3.867-5.0815c0-4.4257-3.867-5.0815-3.867-5.0815zm-.854 2.4584h-4.56v5.4538h4.56s2.075 0 2.075-2.7269-2.075-2.7269-2.075-2.7269z" fill-rule="evenodd"/><path d="m127.683 23.2839h2.36974v16.533h-2.36974z"/><path d="m140.243 23.2839h2.36974v16.533h-2.36974z"/><path clip-rule="evenodd" d="m148.943 28.8344c-3.314 0-4.419 2.2694-4.419 2.2694l1.974 1.1627s.477-1.1627 2.635-1.1627c1.57 0 2.094 1.1821 2.263 1.8255v.4858c-.689-.3335-2.178-.8587-4.305-.5435-2.885.4275-2.827 3.0275-2.818 3.4379 0 .0169.001.0301.001.0393 0 .2316.002 3.6656 3.778 3.4306 1.648-.1026 2.691-.6078 3.344-1.1445v1.1768h2.37v-7.1764-.0138c0-.9542-.702-3.7871-4.823-3.7871zm-2.44 7.589c.158-2.5562 4.724-1.3298 4.724-1.3298s.061.2703.061.8465c-.406 1.812-4.944 3.0394-4.785.4833z" fill-rule="evenodd"/><path clip-rule="evenodd" d="m159.397 36.3849-3.04-7.1963h-2.37l4.225 10.0011-2.21 5.2329h2.369l6.412-15.1768h-2.37z" fill-rule="evenodd"/><path clip-rule="evenodd" d="m117.366 28.8344c3.973 0 5.012 4.2189 5.012 4.2189l-7.495 3.0871s.484 1.7075 2.738 1.7189c1.764.009 2.76-1.5587 2.76-1.5587l1.902 1.2835s-1.535 2.4734-4.677 2.4734c-3.862 0-5.563-3.3656-5.563-5.5514 0-2.1059 1.35-5.6717 5.323-5.6717zm-.229 2.1782c1.447-.2637 2.389 1.1662 2.389 1.1662l-5.063 2.0597s-.385-2.6681 2.674-3.2259z" fill-rule="evenodd"/><path d="m108.488 23.2839h2.50705v16.4982h-2.50705z"/><path clip-rule="evenodd" d="m104.476 30.2225v-1.0296l2.318.02v10.4099c0 2.6596-1.589 5.4672-5.33 5.4672-3.74 0-4.9481-3.303-4.9481-3.303l2.1285-.8922s.6491 2.0357 2.9306 2.0357c2.598 0 2.901-2.3558 2.901-3.1622v-1.1297s-.899 1.4023-3.131 1.4023c-2.4213 0-5.2981-2.0673-5.2981-5.5915s2.7089-5.54 5.3261-5.6133c2.096-.0587 3.103 1.3864 3.103 1.3864zm.126 4.2567c0 1.9033-1.37 3.4463-3.06 3.4463-1.6896 0-3.0597-1.543-3.0597-3.4463 0-1.9034 1.3701-3.4463 3.0597-3.4463 1.69 0 3.06 1.5429 3.06 3.4463z" fill-rule="evenodd"/><path clip-rule="evenodd" d="m95.0058 34.4438c0 3.0979-2.5255 5.6094-5.6408 5.6094-3.1154 0-5.6409-2.5115-5.6409-5.6094 0-3.098 2.5255-5.6094 5.6409-5.6094 3.1153 0 5.6408 2.5114 5.6408 5.6094zm-2.507 0c0 1.883-1.4196 3.4096-3.1707 3.4096s-3.1707-1.5266-3.1707-3.4096c0-1.8831 1.4196-3.4097 3.1707-3.4097s3.1707 1.5266 3.1707 3.4097z" fill-rule="evenodd"/><path clip-rule="evenodd" d="m82.8017 34.4438c0 3.0979-2.5255 5.6094-5.6408 5.6094-3.1154 0-5.6409-2.5115-5.6409-5.6094 0-3.098 2.5255-5.6094 5.6409-5.6094 3.1153 0 5.6408 2.5114 5.6408 5.6094zm-2.507 0c0 1.883-1.4196 3.4096-3.1707 3.4096s-3.1707-1.5266-3.1707-3.4096c0-1.8831 1.4196-3.4097 3.1707-3.4097s3.1707 1.5266 3.1707 3.4097z" fill-rule="evenodd"/><path clip-rule="evenodd" d="m62.5957 30.6127h7.4474l-.0737 2.3464h-7.3737z" fill-rule="evenodd"/><path clip-rule="evenodd" d="m62.4849 40.0716c4.9063.044 8.9986-3.3966 8.1803-9.3717 0-.0292-.0002-.0582-.0004-.0873h-2.1754c.0177.2495.0239.5062.018.77.0052 4.2676-2.4669 6.2693-5.9488 6.2693s-6.3045-2.8069-6.3045-6.2693c0-3.4625 2.8226-6.2694 6.3045-6.2694 1.7419 0 3.2516.5925 4.3146 1.6732l1.7041-1.6946c-1.4495-1.522-3.57-2.3983-6.0924-2.3983-4.8258 0-8.7378 3.8902-8.7378 8.6891 0 4.7988 3.912 8.6822 8.7378 8.689z" fill-rule="evenodd"/></g><path clip-rule="evenodd" d="m40.7422 23.3936c1.9366 1.1051 1.9366 3.897.0001 5.0022l-23.1359 13.2033c-1.9198 1.0956-4.3071-.2907-4.3071-2.5011v-26.4063c0-2.2104 2.3873-3.59666 4.307-2.5011z" fill="url(#a)" fill-rule="evenodd"/><g clip-rule="evenodd" fill-rule="evenodd" mask="url(#e)"><path d="m13.2247 9.21924 16.5629 16.40726-16.7769 17.0557z" fill="url(#b)"/><path d="m9.81885 5.84155 19.96695 19.78975 5.9364-5.6444z" fill="url(#c)"/><path d="m29.7887 25.6276 9.088 9.1298-27.1496 9.1298z" fill="url(#d)"/></g></svg>